<svg width="32" height="32" viewBox="0 0 32 32" fill="none" xmlns="http://www.w3.org/2000/svg">
<path fill-rule="evenodd" clip-rule="evenodd" d="M5 10C5 7.23858 7.23858 5 10 5H22C24.7614 5 27 7.23858 27 10V22C27 24.7614 24.7614 27 22 27H10C7.23858 27 5 24.7614 5 22V10ZM16.1027 11C13.2663 11 10.965 13.3012 10.965 16.1377C10.965 18.9743 13.2663 21.2754 16.1027 21.2754C18.9393 21.2754 21.2405 18.9743 21.2405 16.1377C21.2405 13.3012 18.9393 11 16.1027 11ZM16.1027 19.4704C14.2626 19.4704 12.77 17.978 12.77 16.1377C12.77 14.2975 14.2626 12.805 16.1027 12.805C17.943 12.805 19.4354 14.2975 19.4354 16.1377C19.4354 17.978 17.943 19.4704 16.1027 19.4704ZM21.343 11.8604C22.0055 11.8604 22.5426 11.3233 22.5426 10.6609C22.5426 9.99842 22.0055 9.46151 21.343 9.46151C20.6806 9.46151 20.1436 9.99842 20.1436 10.6609C20.1436 11.3233 20.6806 11.8604 21.343 11.8604Z" fill="white"/>
</svg>
