<svg width="32" height="32" viewBox="0 0 32 32" fill="none" xmlns="http://www.w3.org/2000/svg">
<path d="M12.0761 25.2859C20.5671 25.2859 25.2105 18.2514 25.2105 12.1515C25.2105 11.9517 25.2063 11.7528 25.1974 11.5549C26.0987 10.9032 26.882 10.09 27.5001 9.16441C26.673 9.53221 25.7827 9.77947 24.8491 9.89134C25.8021 9.31962 26.5339 8.4156 26.879 7.33794C25.9871 7.86673 24.9993 8.2509 23.9477 8.4584C23.1054 7.56112 21.9059 7 20.578 7C18.0288 7 15.9614 9.06727 15.9614 11.6156C15.9614 11.978 16.002 12.3303 16.0811 12.6682C12.2445 12.4751 8.84227 10.6384 6.56572 7.84512C6.16944 8.5272 5.94075 9.31976 5.94075 10.1654C5.94075 11.7668 6.75575 13.1809 7.99495 14.0078C7.23761 13.9846 6.52623 13.7767 5.90429 13.4306C5.9036 13.45 5.9036 13.4689 5.9036 13.4895C5.9036 15.7252 7.49478 17.5918 9.60732 18.0148C9.21929 18.1204 8.81104 18.1772 8.38999 18.1772C8.09306 18.1772 7.80355 18.148 7.5223 18.0939C8.10998 19.9281 9.81426 21.2628 11.8347 21.3002C10.2547 22.5386 8.26437 23.2763 6.10119 23.2763C5.72913 23.2763 5.36133 23.255 5 23.2123C7.04305 24.5218 9.46903 25.286 12.0762 25.286" fill="white"/>
</svg>
