<svg width="32" height="32" viewBox="0 0 32 32" fill="none" xmlns="http://www.w3.org/2000/svg">
<path fill-rule="evenodd" clip-rule="evenodd" d="M25.3813 7.75589C26.4266 8.05161 27.2338 8.88382 27.4976 9.93759C27.8436 11.8561 28.0116 13.8024 27.9994 15.7518C28.0063 17.6721 27.8383 19.589 27.4976 21.4788C27.2338 22.5326 26.4266 23.3648 25.3813 23.6605C23.5051 24.1623 16 24.1623 16 24.1623C16 24.1623 8.49497 24.1623 6.61871 23.6605C5.59553 23.3805 4.79301 22.5863 4.50246 21.5661C4.15641 19.6476 3.98843 17.7012 4.00067 15.7518C3.99111 13.817 4.15908 11.8854 4.50246 9.98122C4.76622 8.92745 5.57346 8.09524 6.61871 7.79952C8.49497 7.29773 16 7.29773 16 7.29773C16 7.29773 23.5051 7.29773 25.3813 7.75589ZM13.5456 19.3189L15.5456 18.1815L17.7951 16.9022L19.818 15.7518L17.7951 14.6014L15.5456 13.3221L13.5456 12.1847V14.4855V17.0181V19.3189ZM15.5456 15.6229L15.7723 15.7518L15.5456 15.8807V15.6229Z" fill="white"/>
</svg>
