<svg width="32" height="32" viewBox="0 0 32 32" fill="none" xmlns="http://www.w3.org/2000/svg">
<path fill-rule="evenodd" clip-rule="evenodd" d="M7.72859 5C6.07872 5 5 6.08339 5 7.50735C5 8.89987 6.04658 10.0142 7.66528 10.0142H7.69659C9.37874 10.0142 10.4256 8.89987 10.4256 7.50735C10.3941 6.08339 9.37874 5 7.72859 5ZM5.28516 11.9956H10.1084V26.5066H5.28516V11.9956ZM17.6008 14.0998C17.6008 14.0998 19.3455 11.6548 21.9475 11.6548C25.1206 11.6548 27.5003 13.7289 27.5003 18.186V26.5064H22.6774V18.7435C22.6774 16.7927 21.9794 15.462 20.234 15.462C18.9015 15.462 18.108 16.3594 17.7594 17.2257C17.6319 17.5359 17.6005 17.9691 17.6005 18.4029V26.5064H12.7773V11.9954H17.6008V14.0998Z" fill="white"/>
</svg>
